<svg width="128" height="128" viewBox="0 0 100 100" xmlns="http://www.w3.org/2000/svg">
  <path fill="#f3efe7" d="M16 29L31 12h12l-4 16-13 11-10 1V29z"/>
  <path fill="#f3efe7" d="M84 29L69 12H57l4 16 13 11 10 1V29z"/>
  <path fill="#f3efe7" d="M50 94L16 60V35l14-8 20 11 20-11 14 8v25L50 94z"/>
  <path fill="#101723" d="M50 87L24 58V41l26 15 26-15v17L50 87z"/>
  <path fill="#f3efe7" d="M50 81L31 58V47l19 11 19-11v11L50 81z"/>
  <path fill="#101723" d="M50 19L81 50 50 81 19 50 50 19z"/>
  <path fill="#f3efe7" d="M50 26L73 49 50 72 27 49 50 26z"/>
  <path fill="#101723" d="M50 31L68 49 50 67 32 49 50 31z"/>
  <path fill="#57e4da" fill-opacity="0.42" d="M50 36L61 47 50 58 39 47 50 36z"/>
  <path fill="#101723" d="M50 35l7 8 7 2-14 16-14-16 7-2z" fill-opacity="0.88"/>
  <path fill="#f3efe7" d="M50 38l4 5 5 1-9 11-9-11 5-1z"/>
  <path fill="#101723" d="M49 44h2v13h-2z"/>
</svg>
